<svg width="48" height="48" viewBox="0 0 48 48" fill="none" xmlns="http://www.w3.org/2000/svg">
<g clip-path="url(#clip0_14_2398)">
<path fill-rule="evenodd" clip-rule="evenodd" d="M14.1176 0.140652C16.6785 0.0281305 17.4946 0 24.0141 0C30.5335 0 31.3496 0.0281305 33.9199 0.150029C36.4714 0.262551 38.2161 0.675132 39.7452 1.26587C41.3211 1.87537 42.6625 2.70053 43.9945 4.03204C45.3359 5.36355 46.152 6.70443 46.743 8.2985C47.334 9.81754 47.7467 11.571 47.8593 14.1215C47.9719 16.6814 48 17.4972 48 24.0141C48 30.531 47.9719 31.3468 47.8593 33.9066C47.7467 36.4571 47.334 38.2012 46.743 39.7296C46.1333 41.3049 45.3078 42.6458 43.9758 43.9773C42.6437 45.3088 41.3023 46.134 39.7264 46.7435C38.2068 47.3342 36.4526 47.7468 33.9011 47.8593C32.6265 47.9154 31.7841 47.9505 30.4556 47.9716C30.1014 47.4599 29.9577 46.7264 29.9577 46.36C29.9577 46.0992 29.9608 45.6423 29.9649 45.0316C29.9731 43.8011 29.9856 41.9461 29.9856 39.8122C29.9856 37.5836 29.2185 36.1333 28.3601 35.3904C33.7014 34.8017 39.3169 32.7824 39.3169 23.6187C39.353 21.2437 38.4661 18.9464 36.841 17.2054C37.0874 16.5968 37.91 14.1706 36.6025 10.8829C36.6025 10.8829 34.5916 10.2427 30.0094 13.3289C26.0757 12.2592 21.9253 12.2592 17.9915 13.3289C13.4053 10.2427 11.3904 10.8829 11.3904 10.8829C10.0869 14.1785 10.9096 16.6047 11.156 17.2054C9.53599 18.9461 8.65096 21.2394 8.68402 23.6108C8.68402 32.7548 14.2876 34.8017 19.6209 35.4023C18.9334 35.999 18.3094 37.0501 18.0948 38.5952C16.7277 39.2116 13.2504 40.2667 11.1123 36.6194C11.1123 36.6194 9.84449 34.3275 7.43217 34.1576C7.43217 34.1576 5.09137 34.1299 7.26921 35.6078C7.26921 35.6078 8.84299 36.3349 9.93191 39.101C9.93191 39.101 11.3427 43.3608 18.0193 41.9184C18.0239 43.0542 18.0336 44.1348 18.0411 44.9702C18.0467 45.5997 18.0511 46.09 18.0511 46.36C18.0511 46.7236 17.9007 47.4591 17.543 47.9714C16.2207 47.9503 15.3794 47.9152 14.1083 47.8593C11.5568 47.7468 9.812 47.3342 8.28298 46.7435C6.70706 46.134 5.36564 45.3088 4.03361 43.9773C2.6922 42.6458 1.8761 41.3049 1.25699 39.7203C0.666015 38.2012 0.253273 36.4477 0.140707 33.8972C0.0281415 31.3374 0 30.5216 0 24.0047C0 17.4878 0.0281415 16.672 0.140707 14.1028C0.253273 11.5523 0.666015 9.80817 1.25699 8.27974C1.8761 6.70444 2.6922 5.36355 4.03361 4.03204C5.36564 2.69115 6.70706 1.87537 8.29236 1.2565C9.812 0.665755 11.5662 0.253174 14.1176 0.140652ZM16.8088 48.5059C17.115 48.4438 17.357 48.2378 17.543 47.9714C18.8846 47.9929 20.7214 48 24.0047 48C27.2793 48 29.115 47.9929 30.4556 47.9716C30.6388 48.2361 30.8782 48.4414 31.1831 48.5059H16.8088ZM16.4098 48.5059H16.8088C16.6863 48.5308 16.5534 48.5326 16.4098 48.5059ZM31.607 48.5059C31.4534 48.5354 31.3124 48.5333 31.1831 48.5059H31.607Z" fill="#28303F"/>
<path d="M9.08887 35.264C9.03721 35.3826 8.84645 35.4181 8.69146 35.3351C8.53646 35.2522 8.42122 35.098 8.47686 34.9755C8.5325 34.853 8.71928 34.8214 8.87428 34.9044C9.02927 34.9874 9.14848 35.1455 9.08887 35.264Z" fill="#28303F"/>
<path d="M10.0626 36.3428C9.98028 36.384 9.88612 36.3955 9.79622 36.3753C9.70632 36.3551 9.62629 36.3045 9.56979 36.2321C9.41479 36.0662 9.38298 35.837 9.50221 35.7342C9.62143 35.6315 9.83606 35.6789 9.99105 35.8449C10.146 36.0108 10.1818 36.24 10.0626 36.3428Z" fill="#28303F"/>
<path d="M11.0085 37.714C10.8614 37.8167 10.6111 37.714 10.472 37.5085C10.4335 37.4716 10.4029 37.4274 10.382 37.3785C10.3611 37.3297 10.3503 37.2771 10.3503 37.224C10.3503 37.1709 10.3611 37.1183 10.382 37.0694C10.4029 37.0205 10.4335 36.9763 10.472 36.9395C10.619 36.8407 10.8694 36.9395 11.0085 37.141C11.1476 37.3425 11.1516 37.6112 11.0085 37.714Z" fill="#28303F"/>
<path d="M12.2921 39.0417C12.161 39.1879 11.8947 39.1484 11.6761 38.9508C11.4575 38.7532 11.4059 38.4845 11.537 38.3423C11.6682 38.2 11.9344 38.2395 12.161 38.4331C12.3875 38.6268 12.4312 38.8994 12.2921 39.0417Z" fill="#28303F"/>
<path d="M14.0923 39.8162C14.0327 40.0019 13.7625 40.0849 13.4922 40.0059C13.222 39.9268 13.0432 39.7055 13.0948 39.5159C13.1465 39.3262 13.4207 39.2393 13.6949 39.3262C13.9691 39.4131 14.144 39.6226 14.0923 39.8162Z" fill="#28303F"/>
<path d="M16.0557 39.9505C16.0557 40.1442 15.8331 40.3101 15.547 40.3141C15.2608 40.318 15.0264 40.16 15.0264 39.9663C15.0264 39.7727 15.2489 39.6067 15.535 39.6028C15.8212 39.5988 16.0557 39.753 16.0557 39.9505Z" fill="#28303F"/>
<path d="M17.8838 39.6463C17.9196 39.8399 17.7208 40.0414 17.4347 40.0888C17.1486 40.1363 16.8982 40.0217 16.8624 39.832C16.8267 39.6423 17.0333 39.4368 17.3115 39.3855C17.5897 39.3341 17.848 39.4526 17.8838 39.6463Z" fill="#28303F"/>
</g>
<defs>
<clipPath id="clip0_14_2398">
<rect width="48" height="48" fill="white"/>
</clipPath>
</defs>
</svg>
