<svg width="24" height="24" viewBox="0 0 24 24" fill="none" xmlns="http://www.w3.org/2000/svg">
<path fill-rule="evenodd" clip-rule="evenodd" d="M12.1481 4.4764C14.5734 1.98925 18.5135 1.98925 20.9388 4.47639C23.2892 6.88681 23.3606 10.7634 21.1026 13.2627L15.3762 19.601C13.5572 21.6144 10.4428 21.6144 8.62374 19.601L2.89742 13.2627C0.639346 10.7634 0.710774 6.88683 3.06123 4.47641C5.4865 1.98926 9.42666 1.98927 11.8519 4.47641L11.315 5.00002L11.8519 4.47641L12 4.62826L12.1481 4.4764ZM19.8648 5.52361C18.0283 3.64018 15.0586 3.64018 13.222 5.52361L12.537 6.22615C12.3958 6.37091 12.2022 6.45254 12 6.45254C11.7978 6.45254 11.6042 6.37091 11.463 6.22615L10.778 5.52363C8.94141 3.64019 5.97174 3.64019 4.13516 5.52363C2.33822 7.36641 2.28222 10.3443 4.01044 12.2572L9.73677 18.5954C10.9602 19.9496 13.0397 19.9496 14.2632 18.5954L19.9896 12.2571C21.7178 10.3442 21.6618 7.36639 19.8648 5.52361ZM16.25 6.5C16.25 6.08579 16.5858 5.75 17 5.75C18.5188 5.75 19.75 6.98122 19.75 8.5C19.75 8.91422 19.4142 9.25 19 9.25C18.5858 9.25 18.25 8.91422 18.25 8.5C18.25 7.80965 17.6903 7.25 17 7.25C16.5858 7.25 16.25 6.91422 16.25 6.5Z" fill="#28303F"/>
</svg>
