<svg width="17" height="16" viewBox="0 0 17 16" fill="none" xmlns="http://www.w3.org/2000/svg">
<path fill-rule="evenodd" clip-rule="evenodd" d="M6.77086 1.92708C7.01815 1.55614 7.43446 1.33334 7.88027 1.33334H9.11977C9.56558 1.33334 9.98189 1.55615 10.2292 1.92708L10.8334 2.83334H13.3334C13.6095 2.83334 13.8334 3.0572 13.8334 3.33334C13.8334 3.60949 13.6095 3.83334 13.3334 3.83334H3.66669C3.39054 3.83334 3.16669 3.60949 3.16669 3.33334C3.16669 3.0572 3.39054 2.83334 3.66669 2.83334H6.16669L6.77086 1.92708ZM10.5 14.6667H6.50002C5.02726 14.6667 3.83335 13.4728 3.83335 12V4.66668H13.1667V12C13.1667 13.4728 11.9728 14.6667 10.5 14.6667ZM7.16669 6.83334C7.44283 6.83334 7.66669 7.0572 7.66669 7.33334V12C7.66669 12.2762 7.44283 12.5 7.16669 12.5C6.89054 12.5 6.66669 12.2762 6.66669 12L6.66669 7.33334C6.66669 7.0572 6.89054 6.83334 7.16669 6.83334ZM9.83335 6.83334C10.1095 6.83334 10.3334 7.0572 10.3334 7.33334V12C10.3334 12.2762 10.1095 12.5 9.83335 12.5C9.55721 12.5 9.33335 12.2762 9.33335 12V7.33334C9.33335 7.0572 9.55721 6.83334 9.83335 6.83334Z" fill="white"/>
</svg>
