<svg width="32" height="32" viewBox="0 0 32 32" fill="none" xmlns="http://www.w3.org/2000/svg">
<path fill-rule="evenodd" clip-rule="evenodd" d="M8.63278 3.62036C10.8834 2.11997 13.8396 3.4955 14.278 6.02184H18.6667C20.6917 6.02184 22.3333 7.66346 22.3333 9.6885C22.3333 10.2408 21.8856 10.6885 21.3333 10.6885C20.7811 10.6885 20.3333 10.2408 20.3333 9.6885C20.3333 8.76803 19.5872 8.02184 18.6667 8.02184H14.3333V24.6885H18.6667C19.5872 24.6885 20.3333 23.9423 20.3333 23.0218C20.3333 22.4696 20.7811 22.0218 21.3333 22.0218C21.8856 22.0218 22.3333 22.4696 22.3333 23.0218C22.3333 25.0469 20.6917 26.6885 18.6667 26.6885H14.278C13.8396 29.2148 10.8834 30.5904 8.63278 29.09L5.96611 27.3122C4.94605 26.6322 4.33334 25.4873 4.33334 24.2613V8.44899C4.33334 7.22303 4.94605 6.07818 5.96611 5.39814L8.63278 3.62036ZM23.2929 19.3738C22.9024 18.9833 22.9024 18.3501 23.2929 17.9596L24.2525 17L17.3333 17C16.7811 17 16.3333 16.5523 16.3333 16C16.3333 15.4477 16.7811 15 17.3333 15L24.2525 15L23.2929 14.0404C22.9024 13.6499 22.9024 13.0168 23.2929 12.6262C23.6834 12.2357 24.3166 12.2357 24.7071 12.6262L26.431 14.3501C27.3422 15.2613 27.3422 16.7387 26.431 17.6499L24.7071 19.3738C24.3166 19.7643 23.6834 19.7643 23.2929 19.3738Z" fill="#28303F"/>
</svg>
