<svg width="16" height="16" viewBox="0 0 16 16" fill="none" xmlns="http://www.w3.org/2000/svg">
<path fill-rule="evenodd" clip-rule="evenodd" d="M1.33337 4.00001C1.33337 2.52725 2.52728 1.33334 4.00004 1.33334H9.85844C10.5657 1.33334 11.244 1.6143 11.7441 2.11439L13.8857 4.256C14.3858 4.7561 14.6667 5.43437 14.6667 6.14162V12C14.6667 13.4728 13.4728 14.6667 12 14.6667H4.00004C2.52728 14.6667 1.33337 13.4728 1.33337 12V4.00001ZM10.5 4.66668C10.5 4.94282 10.2762 5.16668 10 5.16668L6.00004 5.16668C5.7239 5.16668 5.50004 4.94282 5.50004 4.66668C5.50004 4.39053 5.7239 4.16668 6.00004 4.16668L10 4.16668C10.2762 4.16668 10.5 4.39053 10.5 4.66668ZM4.66671 12.6667V10C4.66671 9.63182 4.96518 9.33334 5.33337 9.33334H10.6667C11.0349 9.33334 11.3334 9.63182 11.3334 10V12.6667C11.3334 13.0349 11.0349 13.3333 10.6667 13.3333H5.33337C4.96518 13.3333 4.66671 13.0349 4.66671 12.6667Z" fill="white"/>
</svg>
