<svg width="16" height="16" viewBox="0 0 16 16" fill="none" xmlns="http://www.w3.org/2000/svg">
<path fill-rule="evenodd" clip-rule="evenodd" d="M4.00004 1.83334C2.80342 1.83334 1.83337 2.80339 1.83337 4.00001V12C1.83337 13.1966 2.80342 14.1667 4.00004 14.1667H4.16671V10.6667C4.16671 9.65416 4.98752 8.83334 6.00004 8.83334H10C11.0126 8.83334 11.8334 9.65416 11.8334 10.6667V14.1667H12C13.1967 14.1667 14.1667 13.1966 14.1667 12V6.14162C14.1667 5.56698 13.9384 5.01588 13.5321 4.60955L11.3905 2.46795C10.9842 2.06162 10.4331 1.83334 9.85844 1.83334H4.00004ZM12 15.1667C13.7489 15.1667 15.1667 13.7489 15.1667 12V6.14162C15.1667 5.30176 14.8331 4.49631 14.2392 3.90244L12.0976 1.76084C11.5037 1.16697 10.6983 0.833344 9.85844 0.833344H4.00004C2.25114 0.833344 0.833374 2.25111 0.833374 4.00001V12C0.833374 13.7489 2.25114 15.1667 4.00004 15.1667H12ZM10.8334 14.1667V10.6667C10.8334 10.2064 10.4603 9.83334 10 9.83334H6.00004C5.5398 9.83334 5.16671 10.2064 5.16671 10.6667V14.1667H10.8334ZM5.50004 4.66668C5.50004 4.39053 5.7239 4.16668 6.00004 4.16668L10 4.16668C10.2762 4.16668 10.5 4.39053 10.5 4.66668C10.5 4.94282 10.2762 5.16668 10 5.16668L6.00004 5.16668C5.7239 5.16668 5.50004 4.94282 5.50004 4.66668Z" fill="#28303F"/>
</svg>
