<svg width="20" height="20" viewBox="0 0 20 20" fill="none" xmlns="http://www.w3.org/2000/svg">
<path fill-rule="evenodd" clip-rule="evenodd" d="M5.59407 11.9619C6.75352 11.3822 8.31155 11.0417 9.99837 11.0417C11.6852 11.0417 13.2432 11.3822 14.4027 11.9619C15.5247 12.5229 16.4567 13.4136 16.4567 14.5833C16.4567 15.753 15.5247 16.6437 14.4027 17.2047C13.2432 17.7845 11.6852 18.125 9.99837 18.125C8.31155 18.125 6.75352 17.7845 5.59407 17.2047C4.47201 16.6437 3.54004 15.753 3.54004 14.5833C3.54004 13.4136 4.47201 12.5229 5.59407 11.9619Z" fill="#37ABEC"/>
<path fill-rule="evenodd" clip-rule="evenodd" d="M6.04004 5.83333C6.04004 3.64721 7.81225 1.875 9.99837 1.875C12.1845 1.875 13.9567 3.64721 13.9567 5.83333C13.9567 8.01946 12.1845 9.79167 9.99837 9.79167C7.81225 9.79167 6.04004 8.01946 6.04004 5.83333Z" fill="#37ABEC"/>
</svg>
