<svg width="24" height="24" viewBox="0 0 24 24" fill="none" xmlns="http://www.w3.org/2000/svg">
<path fill-rule="evenodd" clip-rule="evenodd" d="M1.25006 6C1.25006 3.37665 3.3767 1.25 6.00006 1.25H18.0001C20.6234 1.25 22.7501 3.37665 22.7501 6V13.9915C22.7501 13.9976 22.7501 14.0037 22.7501 14.0098V18C22.7501 20.6234 20.6234 22.75 18.0001 22.75H6.00006C3.3767 22.75 1.25006 20.6234 1.25006 18V14.0085C1.24998 14.0024 1.24998 13.9963 1.25006 13.9902V6ZM2.75006 15.4642V18C2.75006 19.7949 4.20513 21.25 6.00006 21.25H18.0001C19.795 21.25 21.2501 19.7949 21.2501 18V14.3842L18.6228 12.4926C17.382 11.5992 15.6862 11.6915 14.5497 12.7143L10.4539 16.4006C8.79283 17.8955 6.31437 18.0305 4.50083 16.7247L2.75006 15.4642ZM21.2501 12.5358L19.4993 11.2753C17.6857 9.96952 15.2073 10.1045 13.5462 11.5994L9.45042 15.2857C8.31392 16.3085 6.61813 16.4008 5.37729 15.5074L2.75006 13.6158V6C2.75006 4.20507 4.20513 2.75 6.00006 2.75H18.0001C19.795 2.75 21.2501 4.20507 21.2501 6V12.5358ZM8.50006 6.75C7.53356 6.75 6.75006 7.5335 6.75006 8.5C6.75006 9.4665 7.53356 10.25 8.50006 10.25C9.46655 10.25 10.2501 9.4665 10.2501 8.5C10.2501 7.5335 9.46655 6.75 8.50006 6.75ZM5.25006 8.5C5.25006 6.70507 6.70513 5.25 8.50006 5.25C10.295 5.25 11.7501 6.70507 11.7501 8.5C11.7501 10.2949 10.295 11.75 8.50006 11.75C6.70513 11.75 5.25006 10.2949 5.25006 8.5Z" fill="white"/>
</svg>
