<svg width="121" height="27" viewBox="0 0 121 27" fill="none" xmlns="http://www.w3.org/2000/svg">
<path d="M32.8508 19.8H36.4908V10.86L40.2708 17.12H42.4708L46.2508 10.86V19.8H49.8908V3.5H46.9908L41.3708 12.62L35.7508 3.5H32.8508V19.8Z" fill="#28303F"/>
<path d="M60.5327 8.08L57.9727 15.32L55.4327 8.08H51.4927L56.1127 19.48L53.9927 24.68H57.4927L64.2327 8.08H60.5327Z" fill="#28303F"/>
<path d="M71.4446 19.8H79.1246C82.7846 19.8 84.9446 17.88 84.9446 14.86C84.9446 13.28 83.8446 11.76 82.2846 11.26C83.4046 10.84 84.1846 9.52 84.1846 8.36C84.1846 5.38 82.1446 3.5 78.5246 3.5H71.4446V19.8ZM75.0846 10.1V6.6H78.3646C79.7446 6.6 80.5446 7.22 80.5446 8.36C80.5446 9.5 79.7446 10.1 78.3646 10.1H75.0846ZM75.0846 16.7V13.02H78.9646C80.4046 13.02 81.3046 13.66 81.3046 14.86C81.3046 16.06 80.4046 16.7 78.9646 16.7H75.0846Z" fill="#28303F"/>
<path d="M90.5491 3H86.9891V19.8H90.5491V3Z" fill="#28303F"/>
<path d="M98.8396 7.8C95.2196 7.8 92.6196 10.38 92.6196 13.94C92.6196 17.5 95.2196 20.08 98.8396 20.08C102.46 20.08 105.06 17.5 105.06 13.94C105.06 10.38 102.46 7.8 98.8396 7.8ZM98.8396 10.84C100.52 10.84 101.62 12.14 101.62 13.94C101.62 15.74 100.52 17.04 98.8396 17.04C97.1596 17.04 96.0596 15.74 96.0596 13.94C96.0596 12.14 97.1596 10.84 98.8396 10.84Z" fill="#28303F"/>
<path d="M113.125 24.96C116.625 24.96 119.165 22.76 119.165 19.58V8.08H115.605V9.28C114.905 8.34 113.785 7.8 112.245 7.8C108.885 7.8 106.545 10.34 106.545 13.84C106.545 17.28 108.885 19.78 112.245 19.78C113.785 19.78 114.905 19.24 115.605 18.3V19.54C115.605 21 114.605 21.96 113.125 21.96C111.805 21.96 111.125 21.48 110.945 20.72H107.345C107.725 22.98 109.645 24.96 113.125 24.96ZM112.805 16.84C111.105 16.84 110.025 15.58 110.025 13.84C110.025 12.1 111.105 10.84 112.805 10.84C114.545 10.84 115.665 12.1 115.665 13.84C115.665 15.58 114.545 16.84 112.805 16.84Z" fill="#28303F"/>
<path fill-rule="evenodd" clip-rule="evenodd" d="M13.4616 27C20.9174 27 26.9616 20.9558 26.9616 13.5C26.9616 6.04416 20.9174 0 13.4616 0C10.675 0 8.08559 0.844288 5.93523 2.29102C9.47735 2.86259 11.4386 5.13654 11.4386 8.468C11.4386 9.976 10.4246 11.692 8.96856 12.238C10.9966 12.888 12.4266 14.864 12.4266 16.918C12.4266 20.844 9.61857 23.34 4.86056 23.34H4.219C6.6344 25.6096 9.88563 27 13.4616 27ZM1.27231 19.31H4.65256C6.52456 19.31 7.69456 18.478 7.69456 16.918C7.69456 15.358 6.52456 14.526 4.65256 14.526H-1.11387e-08C0.127913 16.2282 0.57147 17.8423 1.27231 19.31ZM0.246048 10.73H3.87256C5.66656 10.73 6.70656 9.95 6.70656 8.468C6.70656 6.986 5.66656 6.18 3.87256 6.18H2.1165C1.23285 7.54673 0.589443 9.08332 0.246048 10.73ZM13.5234 20.948C13.5234 19.466 14.6154 18.348 16.1234 18.348C17.6054 18.348 18.6974 19.466 18.6974 20.948C18.6974 22.43 17.6054 23.548 16.1234 23.548C14.6154 23.548 13.5234 22.43 13.5234 20.948Z" fill="#28303F"/>
</svg>
