<svg width="48" height="48" viewBox="0 0 48 48" fill="none" xmlns="http://www.w3.org/2000/svg">
<g clip-path="url(#clip0_14_2387)">
<path fill-rule="evenodd" clip-rule="evenodd" d="M14.1176 0.140652C16.6785 0.0281305 17.4946 0 24.0141 0C30.5335 0 31.3496 0.0281305 33.9199 0.150029C36.4714 0.262551 38.2161 0.675132 39.7452 1.26587C41.3211 1.87537 42.6625 2.70053 43.9945 4.03204C45.3359 5.36355 46.152 6.70443 46.743 8.2985C47.334 9.81754 47.7467 11.571 47.8593 14.1215C47.9719 16.6814 48 17.4972 48 24.0141C48 30.531 47.9719 31.3468 47.8593 33.9066C47.7467 36.4571 47.334 38.2012 46.743 39.7296C46.1333 41.3049 45.3078 42.6458 43.9758 43.9773C42.6437 45.3088 41.3023 46.134 39.7264 46.7435C38.2068 47.3342 36.4526 47.7468 33.9011 47.8593C31.3402 47.9719 30.5241 48 24.0047 48C17.4852 48 16.6691 47.9719 14.1083 47.8593C11.5568 47.7468 9.812 47.3342 8.28298 46.7435C6.70706 46.134 5.36564 45.3088 4.03361 43.9773C2.6922 42.6458 1.8761 41.3049 1.25699 39.7203C0.666015 38.2012 0.253273 36.4477 0.140707 33.8972C0.0281415 31.3374 0 30.5216 0 24.0047C0 17.4878 0.0281415 16.672 0.140707 14.1028C0.253273 11.5523 0.666015 9.80817 1.25699 8.27974C1.8761 6.70444 2.6922 5.36355 4.03361 4.03204C5.36564 2.69115 6.70706 1.87537 8.29236 1.2565C9.812 0.665755 11.5662 0.253174 14.1176 0.140652ZM36.3689 19.0415C36.3689 27.3808 30.08 37 18.5852 37C15.1871 37.0018 11.8601 36.0177 9 34.1648C9.49562 34.2256 9.99441 34.2565 10.4937 34.2573C13.309 34.2618 16.0439 33.3093 18.2579 31.5531C16.9538 31.5266 15.6904 31.0897 14.644 30.3033C13.5977 29.5168 12.8206 28.4201 12.4212 27.1662C13.357 27.3491 14.3219 27.3121 15.2413 27.0581C13.8259 26.7703 12.5528 25.9965 11.6385 24.8681C10.7241 23.7397 10.225 22.3264 10.2259 20.8684V20.7903C11.0947 21.2758 12.0654 21.5457 13.0579 21.5775C11.7359 20.6845 10.8002 19.3167 10.441 17.7521C10.0817 16.1875 10.3259 14.5435 11.1239 13.1541C12.6939 15.1027 14.652 16.6963 16.8711 17.8316C19.0902 18.967 21.5207 19.6187 24.0053 19.7446C23.6954 18.3912 23.8356 16.9724 24.4043 15.7076C24.973 14.4428 25.9385 13.4024 27.1514 12.7472C28.3644 12.092 29.7573 11.8586 31.1148 12.0831C32.4723 12.3075 33.7188 12.9773 34.6616 13.9888C36.0608 13.7094 37.4027 13.1914 38.6297 12.457C38.1618 13.9181 37.1852 15.1584 35.8809 15.9479C37.1197 15.8026 38.3294 15.4682 39.4688 14.9563C38.6302 16.2242 37.5745 17.3308 36.3511 18.2242C36.363 18.4947 36.3689 18.7711 36.3689 19.0415Z" fill="#28303F"/>
</g>
<defs>
<clipPath id="clip0_14_2387">
<rect width="48" height="48" fill="white"/>
</clipPath>
</defs>
</svg>
