<svg width="48" height="48" viewBox="0 0 48 48" fill="none" xmlns="http://www.w3.org/2000/svg">
<g clip-path="url(#clip0_14_2385)">
<path fill-rule="evenodd" clip-rule="evenodd" d="M14.1176 0.140652C16.6785 0.0281305 17.4946 0 24.0141 0C30.5335 0 31.3496 0.0281305 33.9199 0.150029C36.4714 0.262551 38.2161 0.675132 39.7452 1.26587C41.3211 1.87537 42.6625 2.70053 43.9945 4.03204C45.3359 5.36355 46.152 6.70443 46.743 8.2985C47.334 9.81754 47.7467 11.571 47.8593 14.1215C47.9719 16.6814 48 17.4972 48 24.0141C48 30.531 47.9719 31.3468 47.8593 33.9066C47.7467 36.4571 47.334 38.2012 46.743 39.7296C46.1333 41.3049 45.3078 42.6458 43.9758 43.9773C42.6437 45.3088 41.3023 46.134 39.7264 46.7435C38.2068 47.3342 36.4526 47.7468 33.9011 47.8593C31.3402 47.9719 30.5241 48 24.0047 48C17.4852 48 16.6691 47.9719 14.1083 47.8593C11.5568 47.7468 9.812 47.3342 8.28298 46.7435C6.70706 46.134 5.36564 45.3088 4.03361 43.9773C2.6922 42.6458 1.8761 41.3049 1.25699 39.7203C0.666015 38.2012 0.253273 36.4477 0.140707 33.8972C0.0281415 31.3374 0 30.5216 0 24.0047C0 17.4878 0.0281415 16.672 0.140707 14.1028C0.253273 11.5523 0.666015 9.80817 1.25699 8.27974C1.8761 6.70444 2.6922 5.36355 4.03361 4.03204C5.36564 2.69115 6.70706 1.87537 8.29236 1.2565C9.812 0.665755 11.5662 0.253174 14.1176 0.140652ZM20.25 47.7084V30.9375H14.1562V24H20.25V18.7125C20.25 12.6975 23.8331 9.375 29.3152 9.375C31.9402 9.375 34.6875 9.84375 34.6875 9.84375V15.75H31.6613C28.68 15.75 27.75 17.6002 27.75 19.5V24H34.4062L33.3422 30.9375H27.75V47.7084H20.25Z" fill="#28303F"/>
</g>
<defs>
<clipPath id="clip0_14_2385">
<rect width="48" height="48" fill="white"/>
</clipPath>
</defs>
</svg>
