<svg width="20" height="20" viewBox="0 0 20 20" fill="none" xmlns="http://www.w3.org/2000/svg">
<path fill-rule="evenodd" clip-rule="evenodd" d="M4.48805 13.0799C3.49887 13.5745 3.125 14.1422 3.125 14.5833C3.125 15.0245 3.49887 15.5921 4.48805 16.0867C5.43985 16.5626 6.79849 16.875 8.33333 16.875C9.86817 16.875 11.2268 16.5626 12.1786 16.0867C13.1678 15.5921 13.5417 15.0245 13.5417 14.5833C13.5417 14.1422 13.1678 13.5745 12.1786 13.0799C11.2268 12.604 9.86817 12.2917 8.33333 12.2917C6.79849 12.2917 5.43985 12.604 4.48805 13.0799ZM3.92904 11.9619C5.08849 11.3822 6.64651 11.0417 8.33333 11.0417C10.0202 11.0417 11.5782 11.3822 12.7376 11.9619C13.8597 12.5229 14.7917 13.4136 14.7917 14.5833C14.7917 15.753 13.8597 16.6437 12.7376 17.2047C11.5782 17.7845 10.0202 18.125 8.33333 18.125C6.64651 18.125 5.08849 17.7845 3.92904 17.2047C2.80697 16.6437 1.875 15.753 1.875 14.5833C1.875 13.4136 2.80697 12.5229 3.92904 11.9619Z" fill="#1E2124"/>
<path fill-rule="evenodd" clip-rule="evenodd" d="M8.33333 3.125C6.83756 3.125 5.625 4.33756 5.625 5.83333C5.625 7.3291 6.83756 8.54167 8.33333 8.54167C9.8291 8.54167 11.0417 7.3291 11.0417 5.83333C11.0417 4.33756 9.8291 3.125 8.33333 3.125ZM4.375 5.83333C4.375 3.64721 6.14721 1.875 8.33333 1.875C10.5195 1.875 12.2917 3.64721 12.2917 5.83333C12.2917 8.01946 10.5195 9.79167 8.33333 9.79167C6.14721 9.79167 4.375 8.01946 4.375 5.83333Z" fill="#1E2124"/>
<path fill-rule="evenodd" clip-rule="evenodd" d="M13.5417 9.16666C13.5417 8.82148 13.8215 8.54166 14.1667 8.54166H17.5C17.8452 8.54166 18.125 8.82148 18.125 9.16666C18.125 9.51183 17.8452 9.79166 17.5 9.79166H14.1667C13.8215 9.79166 13.5417 9.51183 13.5417 9.16666Z" fill="#1E2124"/>
<path fill-rule="evenodd" clip-rule="evenodd" d="M15.8333 11.4583C15.4881 11.4583 15.2083 11.1785 15.2083 10.8333L15.2083 7.50001C15.2083 7.15483 15.4881 6.87501 15.8333 6.87501C16.1785 6.87501 16.4583 7.15483 16.4583 7.50001L16.4583 10.8333C16.4583 11.1785 16.1785 11.4583 15.8333 11.4583Z" fill="#1E2124"/>
</svg>
