<svg width="16" height="16" viewBox="0 0 16 16" fill="none" xmlns="http://www.w3.org/2000/svg">
<path fill-rule="evenodd" clip-rule="evenodd" d="M1.83331 4.00001C1.83331 2.80339 2.80336 1.83334 3.99998 1.83334H7.99998C8.27612 1.83334 8.49998 1.60949 8.49998 1.33334C8.49998 1.0572 8.27612 0.833344 7.99998 0.833344H3.99998C2.25108 0.833344 0.833313 2.25111 0.833313 4.00001V12C0.833313 13.7489 2.25108 15.1667 3.99998 15.1667H12C13.7489 15.1667 15.1666 13.7489 15.1666 12V8.00001C15.1666 7.72387 14.9428 7.50001 14.6666 7.50001C14.3905 7.50001 14.1666 7.72387 14.1666 8.00001V12C14.1666 13.1966 13.1966 14.1667 12 14.1667H3.99998C2.80336 14.1667 1.83331 13.1966 1.83331 12V4.00001ZM10.946 1.78473C11.5479 1.18288 12.5237 1.18288 13.1255 1.78473L14.2153 2.87448C14.8171 3.47634 14.8171 4.45213 14.2153 5.05398L13.249 6.02019C13.1732 5.98263 13.0934 5.94202 13.0107 5.89846C12.4537 5.60525 11.7928 5.19372 11.2995 4.70047C10.8063 4.20722 10.3948 3.54631 10.1016 2.98936C10.058 2.90661 10.0174 2.82679 9.9798 2.75094L10.946 1.78473ZM10.5924 5.40758C11.1761 5.99126 11.9184 6.45064 12.5063 6.76295L8.70667 10.5626C8.47088 10.7984 8.16498 10.9513 7.83487 10.9985L5.5464 11.3254C5.03785 11.398 4.60195 10.9621 4.6746 10.4536L5.00152 8.16512C5.04868 7.83501 5.20163 7.52911 5.43742 7.29332L9.23704 3.49369C9.54936 4.08157 10.0087 4.82389 10.5924 5.40758Z" fill="white"/>
</svg>
