<svg width="17" height="16" viewBox="0 0 17 16" fill="none" xmlns="http://www.w3.org/2000/svg">
<path fill-rule="evenodd" clip-rule="evenodd" d="M6.35482 1.64973C6.69484 1.1397 7.26726 0.833344 7.88025 0.833344H9.11975C9.73274 0.833344 10.3052 1.1397 10.6452 1.64973L11.4343 2.83334H14.5C14.7761 2.83334 15 3.0572 15 3.33334C15 3.60949 14.7761 3.83334 14.5 3.83334H2.5C2.22386 3.83334 2 3.60949 2 3.33334C2 3.0572 2.22386 2.83334 2.5 2.83334H5.56574L6.35482 1.64973ZM6.76759 2.83334H10.2324L9.81313 2.20443C9.65858 1.97259 9.39838 1.83334 9.11975 1.83334H7.88025C7.60162 1.83334 7.34142 1.97259 7.18687 2.20443L6.76759 2.83334ZM3.83333 4.83334C4.10948 4.83334 4.33333 5.0572 4.33333 5.33334V12C4.33333 13.1966 5.30338 14.1667 6.5 14.1667H10.5C11.6966 14.1667 12.6667 13.1966 12.6667 12V5.33334C12.6667 5.0572 12.8905 4.83334 13.1667 4.83334C13.4428 4.83334 13.6667 5.0572 13.6667 5.33334V12C13.6667 13.7489 12.2489 15.1667 10.5 15.1667H6.5C4.7511 15.1667 3.33333 13.7489 3.33333 12V5.33334C3.33333 5.0572 3.55719 4.83334 3.83333 4.83334ZM7.16667 6.83334C7.44281 6.83334 7.66667 7.0572 7.66667 7.33334V11.3333C7.66667 11.6095 7.44281 11.8333 7.16667 11.8333C6.89052 11.8333 6.66667 11.6095 6.66667 11.3333V7.33334C6.66667 7.0572 6.89052 6.83334 7.16667 6.83334ZM9.83333 6.83334C10.1095 6.83334 10.3333 7.0572 10.3333 7.33334V11.3333C10.3333 11.6095 10.1095 11.8333 9.83333 11.8333C9.55719 11.8333 9.33333 11.6095 9.33333 11.3333V7.33334C9.33333 7.0572 9.55719 6.83334 9.83333 6.83334Z" fill="#F37C4B"/>
</svg>
