<svg width="16" height="16" viewBox="0 0 16 16" fill="none" xmlns="http://www.w3.org/2000/svg">
<path fill-rule="evenodd" clip-rule="evenodd" d="M11.0576 1.37479C11.7794 0.652903 12.9499 0.652903 13.6717 1.37479L14.6253 2.32832C15.3471 3.0502 15.3471 4.2206 14.6253 4.94249L9.22192 10.3458C8.93911 10.6286 8.57219 10.8121 8.17625 10.8687L6.17384 11.1547C5.39887 11.2654 4.73462 10.6012 4.84533 9.82621L5.13138 7.8238C5.18795 7.42786 5.3714 7.06095 5.65422 6.77813L11.0576 1.37479ZM12.9646 2.08189C12.6333 1.75053 12.096 1.75053 11.7647 2.08189L10.9827 2.86387C10.9966 2.93371 11.018 3.02038 11.0511 3.11972C11.1487 3.41244 11.349 3.8197 11.7647 4.23538C12.1804 4.65107 12.5876 4.85136 12.8803 4.94893C12.9797 4.98205 13.0663 5.00349 13.1362 5.01735L13.9182 4.23538C14.2495 3.90402 14.2495 3.36678 13.9182 3.03542L12.9646 2.08189ZM12.3397 5.81387C11.957 5.65576 11.5044 5.38932 11.0576 4.94249C10.6107 4.49565 10.3443 4.043 10.1862 3.66039L6.36133 7.48524C6.23151 7.61505 6.1473 7.78348 6.12133 7.96522L5.83528 9.96764C5.81885 10.0826 5.91742 10.1812 6.03241 10.1648L8.03483 9.87872C8.21658 9.85275 8.385 9.76854 8.51481 9.63873L12.3397 5.81387ZM10.9576 2.6807L10.9576 2.68009L10.9576 2.67863L10.9576 2.6767C10.9575 2.67613 10.9575 2.67594 10.9575 2.67614L10.9576 2.67669C10.9576 2.67671 10.9576 2.67673 10.9576 2.67674M10.9576 2.6807C10.9576 2.68085 10.9576 2.68101 10.9576 2.68116C10.9576 2.68124 10.9576 2.68132 10.9576 2.6814C10.9576 2.6814 10.9576 2.6814 10.9576 2.6814L10.9576 2.68116V2.68094L10.9576 2.6807ZM4.00001 1.83337C2.80339 1.83337 1.83334 2.80342 1.83334 4.00004V12C1.83334 13.1967 2.80339 14.1667 4.00001 14.1667H12C13.1966 14.1667 14.1667 13.1967 14.1667 12V8.00004C14.1667 7.7239 14.3905 7.50004 14.6667 7.50004C14.9428 7.50004 15.1667 7.7239 15.1667 8.00004V12C15.1667 13.7489 13.7489 15.1667 12 15.1667H4.00001C2.25111 15.1667 0.833344 13.7489 0.833344 12V4.00004C0.833344 2.25114 2.25111 0.833374 4.00001 0.833374H8.00001C8.27615 0.833374 8.50001 1.05723 8.50001 1.33337C8.50001 1.60952 8.27615 1.83337 8.00001 1.83337H4.00001Z" fill="#28303F"/>
</svg>
