<svg width="48" height="48" viewBox="0 0 48 48" fill="none" xmlns="http://www.w3.org/2000/svg">
<g clip-path="url(#clip0_14_2389)">
<path fill-rule="evenodd" clip-rule="evenodd" d="M14.1176 0.140652C16.6785 0.0281305 17.4946 0 24.0141 0C30.5335 0 31.3496 0.0281305 33.9199 0.150029C36.4714 0.262551 38.2161 0.675132 39.7452 1.26587C41.3211 1.87537 42.6625 2.70053 43.9945 4.03204C45.3359 5.36355 46.152 6.70443 46.743 8.2985C47.334 9.81754 47.7467 11.571 47.8593 14.1215C47.9719 16.6814 48 17.4972 48 24.0141C48 30.531 47.9719 31.3468 47.8593 33.9066C47.7467 36.4571 47.334 38.2012 46.743 39.7296C46.1333 41.3049 45.3078 42.6458 43.9758 43.9773C42.6437 45.3088 41.3023 46.134 39.7264 46.7435C38.2068 47.3342 36.4526 47.7468 33.9011 47.8593C31.3402 47.9719 30.5241 48 24.0047 48C17.4852 48 16.6691 47.9719 14.1083 47.8593C11.5568 47.7468 9.812 47.3342 8.28298 46.7435C6.70706 46.134 5.36564 45.3088 4.03361 43.9773C2.6922 42.6458 1.8761 41.3049 1.25699 39.7203C0.666015 38.2012 0.253273 36.4477 0.140707 33.8972C0.0281415 31.3374 0 30.5216 0 24.0047C0 17.4878 0.0281415 16.672 0.140707 14.1028C0.253273 11.5523 0.666015 9.80817 1.25699 8.27974C1.8761 6.70444 2.6922 5.36355 4.03361 4.03204C5.36564 2.69115 6.70706 1.87537 8.29236 1.2565C9.812 0.665755 11.5662 0.253174 14.1176 0.140652ZM36.8156 14.0624C38.4 14.0624 39.6937 12.778 39.6937 11.1843C39.6937 9.5999 38.4 8.30615 36.8156 8.30615C35.2313 8.30615 33.9375 9.59053 33.9375 11.1843C33.9375 12.7687 35.2219 14.0624 36.8156 14.0624ZM11.6719 24C11.6719 17.1937 17.1938 11.6719 24 11.6719C30.8062 11.6719 36.3281 17.1937 36.3281 24C36.3281 30.8062 30.8062 36.3281 24 36.3281C17.1938 36.3281 11.6719 30.8062 11.6719 24ZM16.0031 24C16.0031 28.4156 19.5844 31.9969 24 31.9969C28.4156 31.9969 31.9969 28.4156 31.9969 24C31.9969 19.5844 28.4156 16.0031 24 16.0031C19.5844 16.0031 16.0031 19.5844 16.0031 24Z" fill="#28303F"/>
</g>
<defs>
<clipPath id="clip0_14_2389">
<rect width="48" height="48" fill="white"/>
</clipPath>
</defs>
</svg>
